<?xml version="1.0" encoding="UTF-8"?>
<svg id="Layer_2" xmlns="http://www.w3.org/2000/svg" viewBox="0 0 183.82 161.51">
  <defs>
    <style>
      .cls-1 {
        fill: #2e2e2e;
      }
    </style>
  </defs>
  <g id="Layer_1-2" data-name="Layer_1">
    <path class="cls-1" d="M59.58,142.4L1.46,84.28c-1.95-1.95-1.95-5.11,0-7.05L59.58,19.1c1.95-1.95,5.11-1.95,7.05,0l21.23,21.23c1.95,1.95,1.95,5.11,0,7.05l-29.84,29.84c-1.95,1.95-1.95,5.11,0,7.05l29.84,29.84c1.95,1.95,1.95,5.11,0,7.05l-21.23,21.23c-1.95,1.95-5.11,1.95-7.05,0Z"/>
    <path class="cls-1" d="M102.9,156.51v-30.13c0-2.56,1.94-4.68,4.49-4.96,20.46-2.24,36.43-19.63,36.43-40.67s-15.97-38.43-36.43-40.67c-2.54-.28-4.49-2.4-4.49-4.96V4.99c0-2.9,2.46-5.17,5.35-4.98,42.13,2.76,75.57,37.92,75.57,80.74s-33.43,77.98-75.57,80.74c-2.89.19-5.35-2.08-5.35-4.98Z"/>
  </g>
</svg>